<svg fill="none" xmlns="http://www.w3.org/2000/svg" viewBox="0 0 172 172">
  <path d="M86 157a71 71 0 100-142 71 71 0 000 142z" stroke="#025D68" stroke-width="30"/>
  <path d="M105.1 100.3c-.4.5-1.1 1-2 1.5-.9.2-2 .4-3.3.4-1.3 0-2.9-.2-4.5-.6L96 99c.5-2 .9-4.3 1.1-6.7 1.6-1.4 3-2.8 4.4-4.3l.5.8c1.3 1.6 2.3 3.2 2.9 4.8a11 11 0 01.9 4c0 1-.2 2-.8 2.8zm-11.6.8l-2.8-.9-2.8-1.3 4.8-3 2.4-2c-.4 2.6-.9 5.1-1.6 7.2zm-.8 2.2c-1 2.1-2.1 3.9-3.2 5l-1.8 1.2a3.5 3.5 0 01-3.6 0c-1-.4-2-1.4-3-2.7-.8-1.3-1.6-2.6-2.1-4l2.8-1c1.4-.5 2.7-1.2 4.1-1.8 1.4.7 2.7 1.3 4.2 1.8 1 .5 1.8.7 2.7 1l-.1.5zm-15.2-5c-.4-1.3-.6-2.9-.9-4.4l2.5 1.8 4.8 3.2c-1 .3-2 .8-2.8 1.2l-2.8 1-.8-2.8zm-5.5 3.8a10 10 0 01-3.3-.6c-.8-.2-1.6-.8-2-1.5-.6-.7-.9-1.5-.9-2.6 0-1.2.4-2.6 1-4 .7-1.8 1.9-3.7 3.4-5.6l.2.1c1.3 1.5 2.7 3 4.2 4.3.4 3.4 1 6.5 2 9.3-1.7.3-3.2.6-4.6.6zm2.4-18.8v6.2l-3-3.1.3-.4 2.7-2.7zm-7.6-4c-.6-1.5-.9-2.8-.9-4 0-1 .3-2 .8-2.7a5 5 0 012-1.4c1-.4 2-.6 3.4-.6 1.3 0 2.8.2 4.5.7l-.8 2.8c-.5 2-.9 4.2-1.2 6.5a47 47 0 00-4.4 4.3l-.5-.7c-1.1-1.5-2-3.1-2.9-4.8zm11.6-7.6l2.7 1L84 74c-1.6.8-3.2 2-4.9 3l-2.5 2c.4-2.5 1-5 1.8-7.3zm.8-2.2c1-2.2 2-3.8 3.2-5 .5-.5 1.2-1 1.7-1.2.7-.3 1.3-.4 1.8-.4.6 0 1.2 0 1.8.4 1 .4 2 1.4 3 2.7.8 1.2 1.5 2.5 2.2 4l-2.8 1c-1.3.6-2.7 1.1-4 1.9l-4.3-2-2.7-1 .1-.4zm15.2 5c.3 1.4.6 2.9.7 4.4l-2.3-1.8A55.7 55.7 0 0088 74l2.8-1.2 2.7-1 .9 2.7zm1.3 12c0 1.6 0 3.2-.2 4.9-1.2.9-2.4 2-3.8 2.9a68.1 68.1 0 01-5.8 3.6 50.3 50.3 0 01-9.5-6.7 47.2 47.2 0 010-9.6l3.7-3c2-1.4 4-2.6 5.9-3.6a47.7 47.7 0 019.5 6.6c.2 1.5.2 3.2.2 4.8zm1.7-3.2c1.1 1 2.2 2.1 3 3.2l-.3.3c-.8 1-1.7 1.8-2.7 2.8l.1-3.2v-3.1zm2.4-12.5c1.3 0 2.5.1 3.4.5 1 .3 1.5.8 2 1.5s.8 1.6.8 2.7-.3 2.5-1 4c-.6 1.8-1.9 3.6-3.4 5.5l-.2-.1a44 44 0 00-4.2-4.3c-.3-3.4-1-6.5-2-9.3 1.8-.4 3.3-.5 4.6-.5zm3 15.7l.9-1c1.2-1.7 2.2-3.4 3-5.3a13 13 0 001.2-4.7 6.4 6.4 0 00-4-6c-1.2-.4-2.6-.6-4-.6-1.7 0-3.5.2-5.2.7l-.3-.9c-1.1-2.3-2.3-4.2-3.7-5.5a7.2 7.2 0 00-4.8-2.2 6 6 0 00-2.5.6c-1.4.7-2.6 1.8-3.8 3.3-.8 1.3-1.7 2.8-2.4 4.5-1.8-.4-3.6-.7-5.1-.7-1.5 0-2.8.3-4 .7a6 6 0 00-4 6c0 1.4.4 3 1.1 4.7.9 2 2.2 4 3.8 6.3l-.8 1a28 28 0 00-3.1 5.2c-.7 1.7-1.1 3.3-1.1 4.8 0 1.3.3 2.7 1 3.7.8 1 1.8 1.7 3 2.2 1.2.4 2.5.6 4 .6 1.6 0 3.3-.2 5.1-.6a18.6 18.6 0 004 6.4c.7.6 1.5 1.1 2.3 1.5a6 6 0 002.5.7c1 0 1.7-.3 2.5-.7a9.6 9.6 0 003.8-3.3 19 19 0 002.4-4.6c1.8.5 3.6.7 5.2.7 1.5 0 2.8-.1 4-.5 1-.6 2-1.2 2.8-2.2.8-1 1.1-2.4 1.1-3.8 0-1.5-.3-3-1-4.8-.9-2-2.2-4-3.9-6.2" fill="#00F3D0"/>
  <path d="M86.3 81.8c-2.5 0-4.6 2-4.6 4.5s2.1 4.7 4.6 4.7c2.6 0 4.6-2.2 4.6-4.7s-2-4.5-4.6-4.5z" fill="#00F3D0" fill-opacity=".5"/>
  <path d="M86.3 81.8c-2.5 0-4.6 2-4.6 4.5s2.1 4.7 4.6 4.7c2.6 0 4.6-2.2 4.6-4.7s-2-4.5-4.6-4.5z" stroke="#00F4D0" stroke-width="3"/>
  <path d="M86.4 17.8a1.4 1.4 0 110-2.8 1.4 1.4 0 010 2.8zM136.6 37a1.4 1.4 0 010-2.8 1.4 1.4 0 010 2.8zm-22-14.2c-.7 0-1.3-.6-1.3-1.4a1.4 1.4 0 112.8 0c0 .8-.6 1.4-1.4 1.4z" fill="#00F3D0"/>
</svg>
