<?xml version="1.0" encoding="UTF-8"?>
<svg fill="none" viewBox="0 0 85 85" xmlns="http://www.w3.org/2000/svg">
	<path d="M0 5C0 2.23858 2.23858 0 5 0H40V40H0V5Z" fill="#A6A6A6"/>
	<path d="m40 0h35c2.7614 0 5 2.2386 5 5v35h-40v-40z" fill="#595959"/>
	<path d="m40 40h40v35c0 2.7614-2.2386 5-5 5h-35v-40z" fill="#666"/>
	<path d="m0 40h40v40h-35c-2.7614 0-5-2.2386-5-5v-35z" fill="#8C8C8C"/>
	<circle cx="60" cy="60" r="25" fill="#07CE8E"/>
	<path d="m20 10v20" stroke="#F0F0F0" stroke-width="3"/>
	<path d="M30 20H10" stroke="#F0F0F0" stroke-width="3"/>
	<path d="m12.929 52.929 14.142 14.142" stroke="#F0F0F0" stroke-width="3"/>
	<path d="m27.071 52.929-14.142 14.142" stroke="#F0F0F0" stroke-width="3"/>
	<path d="M70 20H50" stroke="#F0F0F0" stroke-width="3"/>
	<path d="M70 56.5H50" stroke="#F0F0F0" stroke-width="3"/>
	<path d="M70 63.5H50" stroke="#F0F0F0" stroke-width="3"/>
</svg>
