<svg fill="none" xmlns="http://www.w3.org/2000/svg" viewBox="0 0 20 15">
  <path fill-rule="evenodd" clip-rule="evenodd" d="M12.08 7.506A2.082 2.082 0 0110 9.59a2.082 2.082 0 01-2.08-2.085c0-1.152.932-2.085 2.08-2.085 1.149 0 2.08.933 2.08 2.085zm-3.466 0c0 .768.62 1.39 1.386 1.39.766 0 1.386-.623 1.386-1.39 0-.768-.62-1.39-1.386-1.39-.766 0-1.386.622-1.386 1.39zm10.991 5.699c-1.531 2.659-7.073 2.325-12.378-.745C1.922 9.39-1.137 4.744.395 2.085.998 1.037 2.225.455 3.813.32a1.393 1.393 0 00-.024.651c-1.307.127-2.301.606-2.79 1.456-1.34 2.327 1.605 6.547 6.578 9.425 4.973 2.88 10.091 3.327 11.431 1 1.34-2.327-1.605-6.547-6.579-9.426-2.056-1.19-4.136-1.964-5.964-2.299a1.392 1.392 0 00.05-.66c1.939.33 4.117 1.124 6.258 2.363 5.305 3.07 8.364 7.716 6.832 10.374zM5.148 1.39A.694.694 0 115.149.002a.694.694 0 01-.001 1.388z" fill="#000"/>
</svg>
