<svg fill="none" xmlns="http://www.w3.org/2000/svg" viewBox="0 0 62 62">
  <defs/>
  <g filter="url(#filter0_d)">
    <g clip-path="url(#clip0)">
      <path d="M55.43 4.71L44 1.5v8.92l11.42-3.21c1.26-.36 1.26-2.15 0-2.5z" fill="#3F2EB3"/>
      <path d="M55.36 4.7L54 4.3l-.23.1-9.76 2.74v3.28l11.35-3.2c1.28-.35 1.28-2.17 0-2.53z" fill="#22167A"/>
      <path d="M44 19.7a.77.77 0 01-.76-.78V.88a.77.77 0 011.54 0v18.04c0 .43-.35.77-.77.77z" fill="#22167A"/>
      <path d="M52.15 17.43H41.9a.8.8 0 00-.8.8v33h11.04a.8.8 0 00.8-.8v-32.2a.8.8 0 00-.8-.8z" fill="#828282"/>
      <path d="M41.12 25.9H30.08a.8.8 0 00-.8.8v24.52h11.84V25.9z" fill="#BDBDBD"/>
      <path d="M29.29 34.36H18.25a.8.8 0 00-.8.8v16.06H29.3V34.36z" fill="#E0E0E0"/>
      <path d="M17.46 42.83H6.43a.8.8 0 00-.8.8v6.8c0 .43.35.8.8.8h11.03v-8.4z" fill="#E0E0E0"/>
      <path d="M52.13 17.43H48.4v28.41c0 .45-.36.81-.81.81h-6.47v4.57h11.01c.45 0 .82-.36.82-.81V18.24a.81.81 0 00-.82-.81zM29.29 46.65h11.83v4.57H29.29v-4.57zM5.63 46.65v3.76c0 .45.36.81.8.81h11.03v-4.57H5.63zM17.46 46.65h11.83v4.57H17.46v-4.57z" fill="#22167A"/>
    </g>
  </g>
  <defs>
    <clipPath id="clip0">
      <path fill="#fff" d="M5.45.11h51.11v51.11H5.45z"/>
    </clipPath>
    <filter id="filter0_d" x=".45" y=".11" width="61.11" height="61.11" filterUnits="userSpaceOnUse" color-interpolation-filters="sRGB">
      <feFlood flood-opacity="0" result="BackgroundImageFix"/>
      <feColorMatrix in="SourceAlpha" values="0 0 0 0 0 0 0 0 0 0 0 0 0 0 0 0 0 0 127 0"/>
      <feOffset dy="5"/>
      <feGaussianBlur stdDeviation="2.5"/>
      <feColorMatrix values="0 0 0 0 0 0 0 0 0 0 0 0 0 0 0 0 0 0 0.3 0"/>
      <feBlend in2="BackgroundImageFix" result="effect1_dropShadow"/>
      <feBlend in="SourceGraphic" in2="effect1_dropShadow" result="shape"/>
    </filter>
  </defs>
</svg>
