<svg fill="none" xmlns="http://www.w3.org/2000/svg" viewBox="0 0 54 41">
  <defs/>
  <path d="M28.92 3.46h-2.45c-.5 0-.92.4-.92.92v1.75h4.3V4.38c0-.51-.42-.92-.93-.92zM48.8 3.46h-2.46c-.51 0-.92.4-.92.92v1.75h4.29V4.38c0-.51-.41-.92-.92-.92z" fill="#828282"/>
  <path d="M28.91 3.46h-1.4c.52 0 .94.41.94.93v1.74h1.4V4.4a.93.93 0 00-.94-.93zM48.78 3.46h-1.4c.52 0 .94.41.94.93v1.74h1.39V4.4a.93.93 0 00-.93-.93z" fill="#BDBDBD"/>
  <path d="M50.7 26.95H24.47a2.42 2.42 0 01-2.42-2.42V8.06a2.42 2.42 0 012.42-2.42H50.7a2.42 2.42 0 012.41 2.42v16.47a2.42 2.42 0 01-2.41 2.42z" fill="#E0E0E0"/>
  <path d="M50.62 5.64h-1.97v14.37a2.5 2.5 0 01-2.5 2.49h-24.1v1.96a2.5 2.5 0 002.49 2.49h26.08a2.5 2.5 0 002.5-2.5V8.15a2.5 2.5 0 00-2.5-2.5z" fill="#BDBDBD"/>
  <path d="M7.76 17.18H5.31c-.5 0-.92.4-.92.91v1.76h4.3v-1.76c0-.5-.42-.91-.93-.91zM27.63 17.18h-2.45c-.51 0-.92.4-.92.91v1.76h4.29v-1.76c0-.5-.41-.91-.92-.91z" fill="#828282"/>
  <path d="M7.75 17.18H6.36c.51 0 .93.41.93.93v1.74h1.4v-1.74a.93.93 0 00-.94-.93zM27.62 17.18h-1.39c.51 0 .93.41.93.93v1.74h1.4v-1.74a.93.93 0 00-.94-.93z" fill="#BDBDBD"/>
  <path d="M29.54 40.67H3.3a2.42 2.42 0 01-2.42-2.42V21.78a2.42 2.42 0 012.42-2.42h26.23a2.42 2.42 0 012.41 2.42v16.47a2.42 2.42 0 01-2.41 2.42z" fill="#BDBDBD"/>
  <path d="M29.46 19.36H27.5v14.36a2.5 2.5 0 01-2.5 2.5H.9v1.95a2.5 2.5 0 002.49 2.5h26.08a2.5 2.5 0 002.5-2.5V21.85a2.5 2.5 0 00-2.5-2.49z" fill="#828282"/>
  <path d="M42.84 5.71h-1.8a.79.79 0 01-.8-.79V3.7c0-.8-.64-1.46-1.44-1.46h-2.44c-.8 0-1.45.65-1.45 1.46v1.22c0 .44-.35.8-.79.8h-1.8a.79.79 0 010-1.58h1.01V3.7A3.03 3.03 0 0136.36.67h2.44a3.03 3.03 0 013.03 3.03v.44h1.01a.79.79 0 010 1.57zM21.68 19.43h-1.8a.79.79 0 01-.8-.79v-1.23c0-.8-.64-1.45-1.44-1.45H15.2c-.8 0-1.45.65-1.45 1.45v1.23c0 .44-.35.8-.79.8h-1.8a.79.79 0 110-1.59h1.01v-.44a3.03 3.03 0 013.03-3.02h2.44a3.03 3.03 0 013.02 3.02v.44h1.02a.79.79 0 010 1.58z" fill="#3F2EB3"/>
</svg>
