<svg fill="none" xmlns="http://www.w3.org/2000/svg" viewBox="0 0 44 50">
  <defs/>
  <path d="M30.205 31.15l-2.893-.403a.964.964 0 01-.782-.636 11.346 11.346 0 00-.535-1.29.964.964 0 01.103-1.003l1.761-2.331a.927.927 0 00-.084-1.214l-2.495-2.495a.926.926 0 00-1.213-.084l-2.331 1.762a.965.965 0 01-1.003.102 11.375 11.375 0 00-1.29-.535.964.964 0 01-.636-.781l-.402-2.893a.926.926 0 00-.918-.799h-3.528a.926.926 0 00-.918.799l-.402 2.893a.964.964 0 01-.636.781c-.443.153-.873.332-1.29.535a.965.965 0 01-1.003-.102l-2.331-1.762a.926.926 0 00-1.214.084L3.67 24.273a.926.926 0 00-.084 1.214l1.762 2.331c.219.29.261.677.102 1.003-.203.417-.382.847-.535 1.29a.964.964 0 01-.781.636l-2.893.402a.926.926 0 00-.799.918v3.528c0 .462.341.854.799.918l2.893.402c.358.05.663.293.781.636.153.443.332.873.535 1.29a.964.964 0 01-.102 1.003l-1.762 2.33a.926.926 0 00.084 1.214l2.495 2.495a.926.926 0 001.214.084l2.33-1.761a.965.965 0 011.004-.103c.417.204.847.383 1.29.535a.964.964 0 01.636.782l.402 2.893a.926.926 0 00.918.799h3.528c.463 0 .854-.341.918-.8l.402-2.892a.964.964 0 01.636-.782c.443-.152.873-.33 1.29-.535a.965.965 0 011.003.103l2.331 1.761a.926.926 0 001.213-.084l2.495-2.495a.926.926 0 00.085-1.213l-1.762-2.331a.964.964 0 01-.102-1.003c.203-.417.382-.847.535-1.29a.964.964 0 01.781-.636l2.893-.402a.926.926 0 00.799-.918v-3.528a.927.927 0 00-.8-.918zm-14.482 9.175a6.494 6.494 0 110-12.988 6.494 6.494 0 010 12.988z" fill="#828282"/>
  <path d="M19.342 29.135a.5.5 0 00.5-.5v-2.47a.5.5 0 00-.444-.497 20.447 20.447 0 00-2.221-.125c-1.157 0-2.185.362-2.926 1.098-.742.738-1.143 1.798-1.143 3.092V31.4H11.29a.5.5 0 00-.5.5v2.776a.5.5 0 00.5.5h1.818v6.485a.5.5 0 00.5.5h2.867a.5.5 0 00.5-.5v-6.485h1.757a.5.5 0 00.496-.435l.366-2.776a.5.5 0 00-.496-.565h-2.123v-1.391c0-.386.063-.575.146-.674.067-.079.233-.199.727-.199h1.494z" fill="#3F2EB3" stroke="#F2F2F2" stroke-linecap="round" stroke-linejoin="round"/>
  <path d="M30.203 31.148l-2.516-.35v3.074c0 .462-.34.854-.799.918l-2.893.402a.964.964 0 00-.781.636c-.153.442-.332.873-.535 1.29a.964.964 0 00.102 1.003l1.762 2.33a.926.926 0 01-.084 1.214l-2.495 2.495a.925.925 0 01-.139.114l2.24 1.693a.926.926 0 001.213-.084l2.495-2.495a.927.927 0 00.084-1.214l-1.761-2.331a.964.964 0 01-.103-1.003c.204-.417.383-.847.535-1.29a.964.964 0 01.782-.636l2.893-.402a.926.926 0 00.798-.918v-3.528a.926.926 0 00-.798-.918z" fill="#4F4F4F"/>
  <path d="M35.033 11.909l-1.631-.967a.391.391 0 01-.19-.373 7.395 7.395 0 00.005-1.316.39.39 0 01.194-.37l1.639-.952c.259-.151.367-.47.254-.748l-.868-2.12a.601.601 0 00-.705-.354l-1.837.47a.39.39 0 01-.396-.126 7.59 7.59 0 00-.93-.939.39.39 0 01-.123-.397l.485-1.833a.601.601 0 00-.349-.708L28.47.29a.601.601 0 00-.75.248l-.967 1.631a.391.391 0 01-.373.19 7.395 7.395 0 00-1.316-.005.39.39 0 01-.369-.194L23.741.521a.601.601 0 00-.747-.254l-2.12.868a.601.601 0 00-.355.705l.47 1.837a.39.39 0 01-.126.396c-.339.283-.653.594-.938.93a.39.39 0 01-.397.123l-1.834-.485a.601.601 0 00-.708.349l-.885 2.112a.601.601 0 00.248.75l1.63.967c.13.077.205.222.191.373a7.393 7.393 0 00-.006 1.316.39.39 0 01-.194.369l-1.638.953a.601.601 0 00-.255.747l.868 2.12c.114.278.415.429.705.355l1.838-.47a.39.39 0 01.396.126c.282.339.593.653.93.938a.39.39 0 01.122.397l-.485 1.834a.601.601 0 00.35.708l2.111.885c.277.116.597.01.75-.248l.967-1.63a.391.391 0 01.373-.191 7.393 7.393 0 001.316.005.39.39 0 01.37.194l.952 1.64c.15.259.47.367.747.253l2.12-.867a.601.601 0 00.355-.706l-.47-1.837a.39.39 0 01.126-.396c.34-.282.653-.594.938-.93a.39.39 0 01.398-.123l1.833.486a.601.601 0 00.708-.35l.886-2.111a.601.601 0 00-.248-.75zm-9.342.807a2.836 2.836 0 110-5.672 2.836 2.836 0 010 5.672z" fill="#E0E0E0"/>
  <path d="M35.03 11.909l-1.382-.82-.7 1.671a.601.601 0 01-.708.349l-1.834-.485a.39.39 0 00-.397.122 7.6 7.6 0 01-.938.93.39.39 0 00-.126.396l.47 1.838a.601.601 0 01-.355.705l-2.12.868a.6.6 0 01-.317.038c.023.023.044.05.062.08l.953 1.638c.15.26.47.368.747.254l2.12-.867a.601.601 0 00.355-.706l-.47-1.837a.39.39 0 01.126-.396c.339-.282.653-.593.938-.93a.39.39 0 01.397-.123l1.834.486a.601.601 0 00.708-.35l.885-2.111a.601.601 0 00-.247-.75z" fill="#BDBDBD"/>
  <path d="M23.58.344a.604.604 0 00-.27-.115.388.388 0 00.27.115z" fill="#BFBFBF"/>
  <path d="M43.136 26.405l-.972-.593a.452.452 0 01-.215-.427 5.166 5.166 0 00.012-.732.452.452 0 01.229-.418l.99-.56a.413.413 0 00.182-.512l-.578-1.462a.413.413 0 00-.481-.25l-1.107.27a.453.453 0 01-.453-.15 5.264 5.264 0 00-.51-.526.452.452 0 01-.134-.458l.305-1.098A.413.413 0 0040.17 19l-1.442-.625a.413.413 0 00-.517.164l-.593.972a.452.452 0 01-.427.215 5.166 5.166 0 00-.731-.012.452.452 0 01-.42-.229l-.56-.99a.413.413 0 00-.51-.182l-1.462.578a.413.413 0 00-.25.481l.269 1.107a.452.452 0 01-.15.453 5.242 5.242 0 00-.526.51.452.452 0 01-.457.134l-1.098-.305a.413.413 0 00-.49.234l-.625 1.442a.413.413 0 00.164.517l.973.593c.147.09.23.255.214.427a5.127 5.127 0 00-.012.731.452.452 0 01-.229.42l-.99.56a.413.413 0 00-.181.51l.577 1.463a.413.413 0 00.482.249l1.106-.269a.452.452 0 01.453.15c.158.187.328.362.51.526.128.115.18.292.134.457l-.304 1.098a.413.413 0 00.233.49l1.443.625c.189.082.41.012.516-.164l.593-.973a.452.452 0 01.427-.214 5.127 5.127 0 00.732.012.452.452 0 01.418.229l.56.99c.102.18.32.257.512.181l1.462-.578a.413.413 0 00.25-.48l-.27-1.107a.453.453 0 01.15-.453c.187-.158.363-.328.526-.51a.452.452 0 01.458-.134l1.097.304a.413.413 0 00.49-.233l.625-1.443a.412.412 0 00-.164-.516zm-6.395 1.858a3.329 3.329 0 110-6.657 3.329 3.329 0 010 6.657z" fill="#BDBDBD"/>
  <path d="M43.136 26.405l-.767-.466-.621 1.433a.413.413 0 01-.49.234l-1.097-.305a.453.453 0 00-.458.134 5.242 5.242 0 01-.526.51.452.452 0 00-.149.453l.269 1.107a.413.413 0 01-.25.48l-1.462.579-.038.01.453.801c.101.18.32.256.51.18l1.463-.577a.413.413 0 00.25-.481l-.269-1.107a.453.453 0 01.15-.453c.186-.157.362-.327.525-.51a.452.452 0 01.458-.134l1.098.305a.413.413 0 00.489-.234l.625-1.442a.412.412 0 00-.163-.517z" fill="#828282"/>
</svg>
