<svg fill="none" xmlns="http://www.w3.org/2000/svg" viewBox="0 0 60 61">
  <defs/>
  <g clip-path="url(#clip0)">
    <path d="M31.463 56.57c11.968 0 21.67-9.703 21.67-21.67 0-11.968-9.702-21.67-21.67-21.67-11.968 0-21.67 9.702-21.67 21.67 0 11.967 9.702 21.67 21.67 21.67z" fill="#E3A127"/>
    <path d="M31.463 56.57c11.968 0 21.67-9.703 21.67-21.67 0-11.968-9.702-21.67-21.67-21.67-11.968 0-21.67 9.702-21.67 21.67 0 11.967 9.702 21.67 21.67 21.67z" fill="#fff" fill-opacity=".5"/>
    <path d="M31.462 57.743a22.694 22.694 0 01-16.152-6.691 22.694 22.694 0 01-6.691-16.153 22.694 22.694 0 016.69-16.153 22.693 22.693 0 0116.153-6.69 22.694 22.694 0 0116.153 6.69 22.694 22.694 0 016.69 16.153 22.694 22.694 0 01-6.69 16.153 22.694 22.694 0 01-16.153 6.69zm0-42.725c-10.962 0-19.881 8.919-19.881 19.881 0 10.963 8.919 19.882 19.881 19.882 10.963 0 19.881-8.92 19.881-19.882 0-10.962-8.918-19.881-19.88-19.881z" fill="#E3A127"/>
    <path d="M47.615 18.747c-.249-.25-.503-.492-.762-.728 3.854 4.217 5.964 9.642 5.964 15.391a22.694 22.694 0 01-6.69 16.153 22.694 22.694 0 01-16.154 6.69c-5.749 0-11.173-2.11-15.39-5.963.236.258.478.513.727.762a22.693 22.693 0 0016.153 6.69 22.694 22.694 0 0016.152-6.69 22.693 22.693 0 006.69-16.153 22.693 22.693 0 00-6.69-16.152z" fill="#E3A127"/>
    <path d="M47.615 18.747c-.249-.25-.503-.492-.762-.728 3.854 4.217 5.964 9.642 5.964 15.391a22.694 22.694 0 01-6.69 16.153 22.694 22.694 0 01-16.154 6.69c-5.749 0-11.173-2.11-15.39-5.963.236.258.478.513.727.762a22.693 22.693 0 0016.153 6.69 22.694 22.694 0 0016.152-6.69 22.693 22.693 0 006.69-16.153 22.693 22.693 0 00-6.69-16.152z" fill="#000" fill-opacity=".1"/>
    <path d="M31.462 49.802c-8.217 0-14.902-6.685-14.902-14.903 0-8.217 6.685-14.902 14.902-14.902 8.218 0 14.903 6.685 14.903 14.902 0 8.218-6.685 14.903-14.903 14.903zm0-24.47c-5.275 0-9.568 4.291-9.568 9.567s4.293 9.568 9.568 9.568c5.276 0 9.568-4.292 9.568-9.568s-4.292-9.568-9.568-9.568z" fill="#E3A127"/>
    <path d="M31.462 49.802c-8.217 0-14.902-6.685-14.902-14.903 0-8.217 6.685-14.902 14.902-14.902 8.218 0 14.903 6.685 14.903 14.902 0 8.218-6.685 14.903-14.903 14.903zm0-24.47c-5.275 0-9.568 4.291-9.568 9.567s4.293 9.568 9.568 9.568c5.276 0 9.568-4.292 9.568-9.568s-4.292-9.568-9.568-9.568z" fill="#fff" fill-opacity=".1"/>
    <path d="M31.462 38.514a3.615 3.615 0 100-7.23 3.615 3.615 0 000 7.23zM31.472 10.022l-3.966-3.45A2.64 2.64 0 0126.6 4.58V1.402c0-.63.74-.967 1.215-.554l3.658 3.182v5.992z" fill="#E3A127"/>
    <path d="M31.472 10.022l-3.966-3.45A2.64 2.64 0 0126.6 4.58V1.402c0-.63.74-.967 1.215-.554l3.658 3.182v5.992z" fill="#fff" fill-opacity=".3"/>
    <path d="M31.472 10.022l3.966-3.45a2.64 2.64 0 00.907-1.992V1.402c0-.63-.74-.967-1.216-.554L31.472 4.03v5.992z" fill="#E3A127"/>
    <path d="M31.472 10.022l3.966-3.45a2.64 2.64 0 00.907-1.992V1.402c0-.63-.74-.967-1.216-.554L31.472 4.03v5.992z" fill="#fff" fill-opacity=".3"/>
    <path d="M43.44 22.931l-.364-5.244a2.64 2.64 0 01.767-2.05l2.247-2.247a.734.734 0 011.25.468l.337 4.836-4.236 4.237z" fill="#E3A127"/>
    <path d="M43.44 22.931l-.364-5.244a2.64 2.64 0 01.767-2.05l2.247-2.247a.734.734 0 011.25.468l.337 4.836-4.236 4.237z" fill="#fff" fill-opacity=".3"/>
    <path d="M43.44 22.93l5.244.365a2.64 2.64 0 002.05-.767l2.247-2.247a.734.734 0 00-.468-1.25l-4.836-.337-4.237 4.237z" fill="#E3A127"/>
    <path d="M43.44 22.93l5.244.365a2.64 2.64 0 002.05-.767l2.247-2.247a.734.734 0 00-.468-1.25l-4.836-.337-4.237 4.237z" fill="#fff" fill-opacity=".3"/>
    <path d="M35.129.848l-.843.734c.294.13.518.417.518.794v3.762c0 .413-.082.816-.236 1.19l.869-.757a2.64 2.64 0 00.907-1.991V1.402c0-.63-.74-.967-1.215-.554zM31.472 28.395a.905.905 0 01-.905-.906V2.617a.905.905 0 111.81 0v24.872c0 .5-.405.906-.905.906zM52.513 19.03l-1.115-.077c.116.3.071.662-.195.929l-2.66 2.66a3.126 3.126 0 01-1.008.674l1.149.08a2.64 2.64 0 002.05-.767l2.247-2.247a.734.734 0 00-.468-1.251zM31.466 35.81a.906.906 0 01-.64-1.546l17.21-17.21a.905.905 0 011.28 1.28l-17.21 17.21a.903.903 0 01-.64.265zM15.45 50.91l.365 5.244a2.64 2.64 0 01-.766 2.05l-2.247 2.247a.734.734 0 01-1.251-.468l-.337-4.836 4.237-4.237z" fill="#E3A127"/>
    <path d="M15.45 50.91l.365 5.244a2.64 2.64 0 01-.766 2.05l-2.247 2.247a.734.734 0 01-1.251-.468l-.337-4.836 4.237-4.237z" fill="#fff" fill-opacity=".3"/>
    <path d="M15.45 50.91l-5.243-.364a2.64 2.64 0 00-2.05.767L5.91 53.559a.734.734 0 00.468 1.252l4.836.336 4.237-4.237z" fill="#E3A127"/>
    <path d="M15.45 50.91l-5.243-.364a2.64 2.64 0 00-2.05.767L5.91 53.559a.734.734 0 00.468 1.252l4.836.336 4.237-4.237z" fill="#fff" fill-opacity=".3"/>
    <path d="M15.815 56.154l-.364-5.244-1.74 1.74.244 3.504a2.64 2.64 0 01-.767 2.05l-1.647 1.647.01.132a.734.734 0 001.25.468l2.247-2.247c.54-.54.82-1.288.767-2.05z" fill="#E3A127"/>
    <path d="M10.214 57.052a.905.905 0 01-.64-1.546l17.21-17.21a.905.905 0 011.28 1.281l-17.21 17.21a.903.903 0 01-.64.265z" fill="#E3A127"/>
  </g>
  <defs>
    <clipPath id="clip0">
      <path fill="#fff" d="M0 .667h60v60H0z"/>
    </clipPath>
  </defs>
</svg>
