<svg viewBox="0 0 425 434" fill="none" xmlns="http://www.w3.org/2000/svg">
<path d="M176.961 232.779C184.513 212.294 213.487 212.294 221.039 232.779V232.779C224.957 243.406 235.9 249.723 247.061 247.803V247.803C268.578 244.101 283.065 269.193 269.101 285.976V285.976C261.857 294.682 261.857 307.318 269.101 316.024V316.024C283.065 332.807 268.578 357.899 247.061 354.197V354.197C235.9 352.277 224.957 358.594 221.039 369.221V369.221C213.487 389.706 184.513 389.706 176.961 369.221V369.221C173.043 358.594 162.1 352.277 150.939 354.197V354.197C129.422 357.899 114.935 332.807 128.899 316.024V316.024C136.143 307.318 136.143 294.682 128.899 285.976V285.976C114.935 269.193 129.422 244.101 150.939 247.803V247.803C162.1 249.723 173.043 243.406 176.961 232.779V232.779Z" fill="#C0C0C0"/>
<path d="M274.961 123.779C282.513 103.294 311.487 103.294 319.039 123.779V123.779C322.957 134.406 333.9 140.723 345.061 138.803V138.803C366.578 135.101 381.065 160.193 367.101 176.976V176.976C359.857 185.682 359.857 198.318 367.101 207.024V207.024C381.065 223.807 366.578 248.899 345.061 245.197V245.197C333.9 243.277 322.957 249.594 319.039 260.221V260.221C311.487 280.706 282.513 280.706 274.961 260.221V260.221C271.043 249.594 260.1 243.277 248.939 245.197V245.197C227.422 248.899 212.935 223.807 226.899 207.024V207.024C234.143 198.318 234.143 185.682 226.899 176.976V176.976C212.935 160.193 227.422 135.101 248.939 138.803V138.803C260.1 140.723 271.043 134.406 274.961 123.779V123.779Z" fill="#404040"/>
<path d="M130.961 93.7792C138.513 73.2938 167.487 73.2938 175.039 93.7792V93.7792C178.957 104.406 189.9 110.723 201.061 108.803V108.803C222.578 105.101 237.065 130.193 223.101 146.976V146.976C215.857 155.682 215.857 168.318 223.101 177.024V177.024C237.065 193.807 222.578 218.899 201.061 215.197V215.197C189.9 213.277 178.957 219.594 175.039 230.221V230.221C167.487 250.706 138.513 250.706 130.961 230.221V230.221C127.043 219.594 116.1 213.277 104.939 215.197V215.197C83.4216 218.899 68.9348 193.807 82.8994 177.024V177.024C90.1433 168.318 90.1433 155.682 82.8994 146.976V146.976C68.9348 130.193 83.4216 105.101 104.939 108.803V108.803C116.1 110.723 127.043 104.406 130.961 93.7792V93.7792Z" fill="#808080"/>
</svg>
