<svg fill="none" xmlns="http://www.w3.org/2000/svg" viewBox="0 0 330 92">
  <defs/>
  <path d="M3 72.97v4.92h7.8v2.54H3v6.19H0V70.46h11.8v2.51H3zM18.75 74.15c1.82 0 3.2.44 4.16 1.32.97.86 1.46 2.17 1.46 3.92v7.23h-2.73v-1.5c-.35.54-.86.95-1.52 1.25-.65.27-1.44.41-2.36.41-.92 0-1.73-.15-2.42-.46A3.94 3.94 0 0113.72 85a3.45 3.45 0 01-.55-1.91c0-1.11.4-2 1.22-2.66.83-.68 2.13-1.01 3.9-1.01h3.19v-.19c0-.86-.26-1.52-.79-1.99-.5-.46-1.27-.69-2.28-.69-.7 0-1.38.11-2.06.33-.66.21-1.22.51-1.68.9l-1.13-2.1a7 7 0 012.33-1.14c.9-.26 1.87-.39 2.88-.39zm-.39 10.53c.73 0 1.36-.16 1.92-.48.57-.34.97-.82 1.2-1.44v-1.43H18.5c-1.66 0-2.5.55-2.5 1.64 0 .53.21.94.63 1.25.42.3 1 .46 1.73.46zM33.84 86.78a7.23 7.23 0 01-3.44-.8 5.96 5.96 0 01-3.23-5.53 6 6 0 013.21-5.5 7.28 7.28 0 013.46-.8c1.22 0 2.28.25 3.19.74.92.5 1.61 1.2 2.08 2.12l-2.22 1.3c-.35-.57-.8-1-1.34-1.27-.52-.3-1.1-.44-1.73-.44a3.63 3.63 0 00-3.74 3.85c0 1.17.34 2.11 1.04 2.82.7.7 1.6 1.04 2.7 1.04.63 0 1.2-.14 1.73-.41.54-.3.99-.73 1.34-1.3l2.22 1.3a5.05 5.05 0 01-2.1 2.14c-.91.5-1.97.74-3.17.74zM53.01 80.52c0 .2-.01.49-.04.86h-9.68c.17.9.61 1.63 1.32 2.17.72.52 1.61.78 2.68.78A4.5 4.5 0 0050.64 83l1.54 1.78a5.21 5.21 0 01-2.1 1.5c-.85.34-1.8.51-2.86.51a7.62 7.62 0 01-3.58-.8 5.92 5.92 0 01-2.4-2.25 6.5 6.5 0 01-.84-3.28c0-1.2.27-2.27.81-3.23a5.87 5.87 0 012.29-2.26c.97-.54 2.06-.81 3.28-.81 1.2 0 2.27.27 3.2.8.96.53 1.7 1.28 2.23 2.25.53.95.8 2.06.8 3.32zm-6.23-4.06a3.42 3.42 0 00-3.51 3h7a3.4 3.4 0 00-1.14-2.17 3.44 3.44 0 00-2.35-.83zM62.62 74.15c1.2 0 2.27.26 3.21.79.96.52 1.7 1.26 2.24 2.21.54.96.81 2.06.81 3.3 0 1.25-.27 2.36-.8 3.33A5.64 5.64 0 0165.82 86c-.94.52-2 .78-3.2.78-.85 0-1.63-.14-2.34-.44-.7-.29-1.28-.73-1.76-1.31v1.59H55.8V69.49h2.88v6.3c.5-.54 1.07-.95 1.74-1.22a5.8 5.8 0 012.21-.42zm-.32 10.16c1.06 0 1.93-.35 2.6-1.06.7-.7 1.05-1.64 1.05-2.8 0-1.15-.35-2.08-1.04-2.79a3.45 3.45 0 00-2.61-1.06c-.7 0-1.32.16-1.87.48-.56.31-1 .76-1.32 1.34a4.13 4.13 0 00-.48 2.03c0 .77.16 1.45.48 2.04a3.5 3.5 0 001.32 1.36c.55.3 1.18.46 1.87.46zM77.16 86.78a7 7 0 01-3.37-.8 6 6 0 01-3.19-5.53 6 6 0 013.19-5.5 7 7 0 013.37-.8c1.26 0 2.4.27 3.4.8 1 .55 1.77 1.3 2.33 2.25.57.95.85 2.04.85 3.25 0 1.22-.28 2.31-.85 3.28a5.84 5.84 0 01-2.34 2.24c-1 .54-2.13.81-3.39.81zm0-2.47c1.06 0 1.94-.35 2.63-1.06.7-.7 1.04-1.64 1.04-2.8 0-1.15-.34-2.08-1.04-2.79a3.53 3.53 0 00-2.63-1.06c-1.06 0-1.94.35-2.63 1.06a3.87 3.87 0 00-1.02 2.8c0 1.15.34 2.08 1.02 2.79.69.7 1.57 1.06 2.63 1.06zM92.04 86.78a7 7 0 01-3.37-.8 6 6 0 01-3.18-5.53 6 6 0 013.19-5.5 7 7 0 013.36-.8c1.27 0 2.4.27 3.4.8 1 .55 1.78 1.3 2.33 2.25.57.95.86 2.04.86 3.25 0 1.22-.29 2.31-.86 3.28a5.84 5.84 0 01-2.33 2.24c-1 .54-2.13.81-3.4.81zm0-2.47c1.07 0 1.94-.35 2.64-1.06.69-.7 1.04-1.64 1.04-2.8 0-1.15-.35-2.08-1.04-2.79a3.53 3.53 0 00-2.64-1.06c-1.06 0-1.94.35-2.63 1.06a3.87 3.87 0 00-1.01 2.8c0 1.15.33 2.08 1.01 2.79.7.7 1.57 1.06 2.63 1.06zM106.42 81.33l-2.15 2.03v3.26h-2.88V69.49h2.88v10.34l5.98-5.54h3.47l-5.15 5.17 5.63 7.16h-3.5l-4.28-5.29z" fill="#E3A127"/>
  <path d="M137.91 74.47c1.5 0 2.66.44 3.51 1.32.86.88 1.3 2.14 1.3 3.79v7.04h-1.16v-6.95c0-1.36-.33-2.39-1-3.1a3.6 3.6 0 00-2.76-1.06c-1.36 0-2.44.42-3.24 1.27a4.83 4.83 0 00-1.18 3.42v6.42h-1.15v-6.95c0-1.36-.33-2.39-1-3.1a3.6 3.6 0 00-2.76-1.06c-1.36 0-2.44.42-3.24 1.27a4.83 4.83 0 00-1.17 3.42v6.42h-1.16V74.56h1.1v2.6c.41-.86 1-1.51 1.79-1.97.8-.48 1.74-.72 2.84-.72 1.1 0 2.02.25 2.77.74a4 4 0 011.64 2.17c.4-.9 1.02-1.6 1.87-2.12a5.67 5.67 0 013-.79zM151.55 74.47c1.49 0 2.64.39 3.44 1.16.8.75 1.2 1.87 1.2 3.35v7.64h-1.11v-2.15c-.39.71-.95 1.26-1.69 1.66-.73.39-1.62.58-2.65.58-1.34 0-2.4-.31-3.19-.95a3.07 3.07 0 01-1.15-2.49c0-1 .35-1.8 1.06-2.42.72-.64 1.87-.95 3.44-.95h4.13v-.97c0-1.12-.3-1.98-.92-2.56-.6-.59-1.49-.88-2.66-.88-.8 0-1.57.14-2.3.41a5.8 5.8 0 00-1.85 1.11l-.58-.83c.6-.54 1.32-.95 2.17-1.25.85-.3 1.73-.46 2.66-.46zm-.65 11.3a4.18 4.18 0 004.13-2.7V80.8h-4.1c-1.2 0-2.05.22-2.6.65a2.18 2.18 0 00-.78 1.77c0 .79.3 1.41.88 1.88a4 4 0 002.47.66zM162.05 77.2c.37-.88.95-1.55 1.74-2.01a5.42 5.42 0 012.86-.72v1.13l-.28-.02c-1.34 0-2.38.42-3.14 1.27a5 5 0 00-1.13 3.49v6.28h-1.15V74.56h1.1v2.64zM174.13 80.18l-3.14 2.86v3.58h-1.16V69.48H171v12.13l7.7-7.05h1.49l-5.2 4.88 5.7 7.18h-1.43l-5.12-6.44zM193.1 80.87h-10.37c.03.94.27 1.78.71 2.52a4.63 4.63 0 001.8 1.68c.77.4 1.63.6 2.59.6.78 0 1.5-.14 2.17-.41.68-.3 1.24-.72 1.69-1.27l.67.76a5.12 5.12 0 01-1.99 1.45 6.4 6.4 0 01-2.56.51c-1.2 0-2.27-.26-3.21-.78a5.78 5.78 0 01-3-5.34c0-1.17.24-2.21.73-3.14a5.6 5.6 0 015.04-2.98 5.54 5.54 0 014.99 2.94c.5.92.76 1.97.76 3.14l-.03.32zm-5.73-5.38a4.54 4.54 0 00-3.93 2.17 5.2 5.2 0 00-.69 2.3h9.24a4.83 4.83 0 00-.7-2.3 4.52 4.52 0 00-3.92-2.17zM202.67 85.86c-.3.27-.66.49-1.1.64-.44.14-.9.21-1.37.21-1.05 0-1.85-.28-2.42-.85a3.33 3.33 0 01-.86-2.43v-7.87h-2.22v-1h2.22v-2.63h1.16v2.63h3.83v1h-3.83v7.76c0 .78.18 1.38.55 1.8.38.4.95.6 1.69.6.75 0 1.37-.22 1.87-.67l.48.8zM205.9 74.56h1.15v12.06h-1.16V74.56zm.57-2.93a.96.96 0 01-.67-.25.91.91 0 01-.28-.67c0-.26.1-.49.28-.67.18-.19.4-.28.67-.28.26 0 .48.1.67.28.18.17.28.38.28.65 0 .26-.1.48-.28.66a.91.91 0 01-.67.28zM217.8 74.47c1.51 0 2.7.44 3.58 1.32.88.88 1.32 2.14 1.32 3.79v7.04h-1.16v-6.95c0-1.36-.34-2.39-1.04-3.1a3.77 3.77 0 00-2.86-1.06c-1.42 0-2.53.42-3.35 1.27a4.72 4.72 0 00-1.22 3.42v6.42h-1.16V74.56h1.11v2.61a4.6 4.6 0 011.85-1.98c.83-.48 1.8-.72 2.93-.72zM238.33 74.56v10.77c0 2-.49 3.48-1.46 4.43-.97.95-2.43 1.43-4.38 1.43a9.6 9.6 0 01-3.15-.5 6.12 6.12 0 01-2.38-1.41l.63-.88c.6.55 1.32.98 2.17 1.3.85.3 1.75.45 2.7.45 1.6 0 2.79-.38 3.56-1.15.77-.76 1.15-1.93 1.15-3.54v-2.03a5.11 5.11 0 01-2.05 2.03c-.88.48-1.87.72-2.96.72a6.42 6.42 0 01-3.07-.74 5.64 5.64 0 01-2.93-5.13c0-1.12.26-2.13.78-3.02a5.47 5.47 0 012.15-2.08c.92-.5 1.95-.74 3.07-.74 1.11 0 2.11.25 3 .74.9.5 1.58 1.19 2.06 2.08v-2.73h1.1zm-6.08 10.58c.94 0 1.79-.2 2.54-.6a4.47 4.47 0 001.76-1.7 4.9 4.9 0 00.65-2.53c0-.93-.22-1.77-.65-2.49-.42-.72-1-1.28-1.76-1.68a5.18 5.18 0 00-2.54-.63c-.94 0-1.78.2-2.54.63a4.5 4.5 0 00-2.38 4.17c0 .94.21 1.78.63 2.52a4.67 4.67 0 004.3 2.31zM253.21 74.47c1.5 0 2.64.39 3.44 1.16.8.75 1.2 1.87 1.2 3.35v7.64h-1.1v-2.15c-.4.71-.95 1.26-1.7 1.66-.73.39-1.62.58-2.65.58-1.34 0-2.4-.31-3.19-.95a3.07 3.07 0 01-1.15-2.49c0-1 .35-1.8 1.06-2.42.73-.64 1.87-.95 3.44-.95h4.14v-.97c0-1.12-.31-1.98-.93-2.56-.6-.59-1.48-.88-2.65-.88-.8 0-1.57.14-2.31.41a5.8 5.8 0 00-1.85 1.11l-.58-.83c.6-.54 1.33-.95 2.17-1.25.85-.3 1.74-.46 2.66-.46zm-.65 11.3a4.19 4.19 0 004.13-2.7V80.8h-4.1c-1.19 0-2.05.22-2.59.65a2.18 2.18 0 00-.78 1.77c0 .79.29 1.41.87 1.88a4 4 0 002.47.66zM273.49 74.56v10.77c0 2-.49 3.48-1.46 4.43-.97.95-2.43 1.43-4.39 1.43a9.6 9.6 0 01-3.14-.5 6.1 6.1 0 01-2.38-1.41l.63-.88c.6.55 1.32.98 2.17 1.3.84.3 1.75.45 2.7.45 1.6 0 2.79-.38 3.56-1.15.77-.76 1.15-1.93 1.15-3.54v-2.03a5.12 5.12 0 01-2.06 2.03c-.87.48-1.86.72-2.95.72a6.42 6.42 0 01-3.07-.74 5.64 5.64 0 01-2.94-5.13c0-1.12.27-2.13.79-3.02a5.47 5.47 0 012.15-2.08c.92-.5 1.95-.74 3.07-.74 1.1 0 2.1.25 3 .74.9.5 1.58 1.19 2.06 2.08v-2.73h1.1zm-6.08 10.58c.94 0 1.79-.2 2.54-.6a4.47 4.47 0 001.76-1.7 4.9 4.9 0 00.64-2.53c0-.93-.21-1.77-.64-2.49-.42-.72-1-1.28-1.76-1.68a5.17 5.17 0 00-2.54-.63c-.94 0-1.78.2-2.54.63a4.5 4.5 0 00-2.38 4.17c0 .94.21 1.78.63 2.52a4.67 4.67 0 004.3 2.31zM288.56 80.87h-10.37c.03.94.27 1.78.71 2.52a4.63 4.63 0 001.8 1.68c.78.4 1.64.6 2.6.6.78 0 1.5-.14 2.16-.41.68-.3 1.24-.72 1.69-1.27l.67.76a5.14 5.14 0 01-1.99 1.45 6.4 6.4 0 01-2.56.51c-1.2 0-2.27-.26-3.21-.78a5.77 5.77 0 01-3-5.34c0-1.17.24-2.21.74-3.14a5.6 5.6 0 015.03-2.98 5.54 5.54 0 014.99 2.94c.5.92.76 1.97.76 3.14l-.02.32zm-5.73-5.38a4.55 4.55 0 00-3.93 2.17 5.2 5.2 0 00-.69 2.3h9.24a4.83 4.83 0 00-.7-2.3 4.51 4.51 0 00-3.92-2.17zM298.04 74.47c1.5 0 2.7.44 3.58 1.32.88.88 1.32 2.14 1.32 3.79v7.04h-1.16v-6.95c0-1.36-.34-2.39-1.04-3.1a3.77 3.77 0 00-2.86-1.06c-1.42 0-2.53.42-3.35 1.27a4.72 4.72 0 00-1.22 3.42v6.42h-1.16V74.56h1.11v2.61a4.6 4.6 0 011.85-1.98c.83-.48 1.8-.72 2.93-.72zM312.5 86.71a6.26 6.26 0 01-3.15-.78 5.66 5.66 0 01-2.17-2.17 6.4 6.4 0 01-.78-3.17c0-1.18.26-2.24.78-3.16a5.46 5.46 0 012.17-2.17 6.26 6.26 0 013.14-.79c.97 0 1.85.2 2.63.58.8.37 1.45.92 1.94 1.64l-.85.62a3.99 3.99 0 00-1.62-1.34 4.73 4.73 0 00-2.1-.46c-.94 0-1.78.22-2.54.65-.74.41-1.32 1-1.75 1.78a5.5 5.5 0 00-.63 2.65c0 1 .21 1.89.63 2.66a4.7 4.7 0 001.75 1.8c.76.41 1.6.62 2.54.62.77 0 1.47-.14 2.1-.44.65-.3 1.19-.76 1.62-1.36l.86.62a4.84 4.84 0 01-1.94 1.67 6.1 6.1 0 01-2.64.55zM330 74.56l-6.2 13.7a5.36 5.36 0 01-1.61 2.26 3.5 3.5 0 01-2.15.67c-.55 0-1.08-.1-1.57-.28a3.33 3.33 0 01-1.22-.8l.57-.88c.62.63 1.37.95 2.25.95.58 0 1.08-.17 1.5-.49.41-.32.8-.88 1.15-1.66l.65-1.46-5.43-12h1.22L324 85.34l4.83-10.79H330z" fill="#fff"/>
  <path stroke="#fff" d="M0 56.88h330"/>
  <path d="M61.46 11.07v9.8h15.61v5.07H61.46v12.34h-6.01V6.05h23.6v5.02h-17.6zM89.36 17.28c1.66-2.57 4.59-3.86 8.78-3.86v5.48c-.5-.1-.94-.14-1.34-.14-2.25 0-4 .66-5.27 1.98-1.26 1.29-1.9 3.16-1.9 5.61v11.93h-5.77V13.69h5.5v3.6zM127.15 13.7v24.58h-5.5v-3.13a9.4 9.4 0 01-3.46 2.58c-1.39.58-2.88.87-4.48.87-3.3 0-5.9-.9-7.81-2.72-1.88-1.84-2.82-4.55-2.82-8.14V13.69h5.78v13.26c0 2.21.49 3.87 1.47 4.98 1.02 1.07 2.45 1.6 4.3 1.6 2.06 0 3.7-.62 4.9-1.88 1.23-1.29 1.85-3.13 1.85-5.53V13.7h5.77zM144.79 27.74l-4.3 4.05v6.49h-5.78V4.12h5.78v20.62l11.97-11.05h6.93l-10.3 10.32 11.27 14.27h-7.03l-8.54-10.54zM178.92 36.94a6.8 6.8 0 01-2.5 1.25c-.95.27-1.97.41-3.04.41-2.72 0-4.81-.7-6.29-2.12-1.48-1.4-2.22-3.47-2.22-6.17V18.48h-4.06v-4.6h4.06V8.26h5.78v5.62h6.6v4.6h-6.6v11.7c0 1.2.3 2.11.88 2.76.58.61 1.43.92 2.54.92 1.3 0 2.37-.34 3.23-1.01l1.62 4.1zM184.5 38.46c-.52 0-.98-.18-1.38-.55-.37-.4-.56-.87-.56-1.43 0-.55.19-1.01.56-1.38.4-.37.86-.55 1.38-.55.53 0 .97.18 1.34.55.4.37.6.83.6 1.38 0 .56-.2 1.03-.6 1.43-.37.37-.81.55-1.34.55zM216.97 22.3h2.26v12.07a14.08 14.08 0 01-5.17 3.08c-2 .7-4.13 1.06-6.38 1.06-3.2 0-6.1-.7-8.69-2.12a15.8 15.8 0 01-6.05-5.85 16.34 16.34 0 01-2.17-8.38c0-3.1.72-5.89 2.17-8.38A15.8 15.8 0 01199 7.94a17.93 17.93 0 018.74-2.12c2.37 0 4.54.38 6.51 1.15 2 .74 3.71 1.83 5.13 3.27l-1.48 1.56a11.94 11.94 0 00-4.57-2.9 15.92 15.92 0 00-5.55-.92c-2.77 0-5.28.62-7.53 1.84a13.45 13.45 0 00-5.22 5.12 14 14 0 00-1.9 7.22c0 2.64.64 5.05 1.9 7.23a14.24 14.24 0 005.27 5.11 15.2 15.2 0 007.48 1.85c3.7 0 6.76-.99 9.2-2.95V22.3zM231.08 19.5a8.2 8.2 0 013.47-4.01 10.86 10.86 0 015.72-1.43v2.26l-.55-.05c-2.68 0-4.77.84-6.28 2.53-1.51 1.66-2.27 3.98-2.27 6.96v12.52h-2.3V14.24h2.21v5.25zM255.84 38.46c-2.28 0-4.34-.52-6.2-1.56a11.38 11.38 0 01-4.29-4.33 12.7 12.7 0 01-1.57-6.3c0-2.34.53-4.43 1.57-6.27a11.3 11.3 0 014.3-4.37 12.37 12.37 0 016.19-1.57c2.28 0 4.33.52 6.15 1.57 1.84 1.04 3.3 2.5 4.34 4.37a12.44 12.44 0 011.57 6.26c0 2.33-.52 4.44-1.57 6.31a11.3 11.3 0 01-4.34 4.33 12.11 12.11 0 01-6.15 1.56zm0-2.07a9.5 9.5 0 004.94-1.29 9.05 9.05 0 003.47-3.59c.86-1.53 1.3-3.28 1.3-5.25 0-1.96-.44-3.71-1.3-5.25a9.05 9.05 0 00-3.47-3.59 9.5 9.5 0 00-4.94-1.29c-1.85 0-3.51.43-4.99 1.3a9.49 9.49 0 00-3.47 3.58 10.84 10.84 0 00-1.24 5.25c0 1.97.41 3.72 1.25 5.25a9.49 9.49 0 003.46 3.6 9.75 9.75 0 004.99 1.28zM296.18 14.24v24.04h-2.22v-5.16c-.8 1.7-1.98 3.01-3.55 3.96a10.77 10.77 0 01-5.55 1.38c-3.14 0-5.6-.87-7.4-2.62-1.78-1.75-2.67-4.27-2.67-7.55V14.25h2.3V28.1c0 2.7.7 4.76 2.09 6.17 1.38 1.42 3.34 2.12 5.87 2.12 2.7 0 4.85-.84 6.42-2.53 1.6-1.69 2.4-3.96 2.4-6.82v-12.8h2.31zM318.08 14.06c2.25 0 4.28.52 6.1 1.57a11.07 11.07 0 014.25 4.32 12.54 12.54 0 011.57 6.31c0 2.37-.52 4.48-1.57 6.36a11.07 11.07 0 01-4.25 4.32 12.31 12.31 0 01-6.1 1.52c-2.13 0-4.05-.49-5.78-1.47a10.54 10.54 0 01-4.01-4.19v14.41h-2.32V14.24h2.22v5.67a10.4 10.4 0 014.02-4.28 11.27 11.27 0 015.87-1.57zm-.14 22.33c1.85 0 3.51-.43 5-1.29a9.06 9.06 0 003.46-3.59c.86-1.53 1.29-3.28 1.29-5.25 0-1.96-.43-3.71-1.3-5.25a9.06 9.06 0 00-3.46-3.59 9.74 9.74 0 00-4.99-1.29c-1.85 0-3.51.43-4.99 1.3A9.5 9.5 0 00309.5 21a10.84 10.84 0 00-1.25 5.25c0 1.97.41 3.72 1.25 5.25a9.5 9.5 0 003.46 3.6 9.75 9.75 0 005 1.28z" fill="#fff"/>
  <path d="M14.81 10.5a5.23 5.23 0 01-5.14-5.25A5.23 5.23 0 0114.8 0c.78 0 1.56.14 2.2.5.34.22.7.5 1.05.72a19.24 19.24 0 009.88 2.74c2.96 0 5.71-.65 8.18-1.87.28-.15.5-.22.78-.36a3.68 3.68 0 014.94 3.52A3.68 3.68 0 0138.15 9c-.35 0-.63-.07-.91-.14A19.26 19.26 0 0028 6.48c-3.53 0-6.78.93-9.67 2.58-.56.29-1.06.65-1.55 1-.63.3-1.27.44-1.98.44z" fill="#E3A127"/>
  <path d="M43.31 29.06a5.23 5.23 0 01-5.15 5.25 5.23 5.23 0 01-5.14-5.25c0-.8.14-1.59.49-2.23.21-.36.5-.72.7-1.08a20.21 20.21 0 00.85-18.41l-.35-.8c-.14-.36-.21-.79-.21-1.29a3.68 3.68 0 013.66-3.74 3.68 3.68 0 013.53 4.67c-.2.44-.42.87-.63 1.37a20.3 20.3 0 00.84 17.91c.29.58.64 1.08 1 1.58.27.65.41 1.3.41 2.02z" fill="#E3A127"/>
  <path d="M26.38 20a36.63 36.63 0 013.74-4.46 35.08 35.08 0 019.1-6.7c.35-.14.64-.35.99-.5.21-.14.35-.29.56-.43a3.88 3.88 0 000-5.32 3.7 3.7 0 00-5.22 0c-.14.14-.28.36-.42.5-.14.36-.35.72-.5 1.08A34.56 34.56 0 0123.7 17.2 5.03 5.03 0 0018 18.27a5.44 5.44 0 000 7.4 5 5 0 004.44 1.45 4.88 4.88 0 002.82-1.44 5.14 5.14 0 001.13-5.69zM39.22 2.87c-.07.07-.2.07-.28.14.07-.07.21-.07.28-.14zM28.43 33.8a5.23 5.23 0 015.15 5.25 5.23 5.23 0 01-5.15 5.25c-.78 0-1.55-.14-2.19-.5-.35-.21-.7-.5-1.06-.72a19.24 19.24 0 00-9.87-2.73c-2.96 0-5.72.65-8.18 1.87-.29.14-.5.21-.78.36a3.68 3.68 0 01-4.94-3.52 3.68 3.68 0 013.67-3.75c.35 0 .63.08.92.15.42.21.84.43 1.34.65a19.26 19.26 0 0017.57-.86c.56-.3 1.05-.66 1.54-1.01a3.94 3.94 0 011.98-.44z" fill="#E3A127"/>
  <path d="M0 15.18a5.23 5.23 0 015.15-5.25 5.23 5.23 0 015.15 5.25c0 .79-.14 1.58-.5 2.23-.2.36-.49.72-.7 1.07a20.2 20.2 0 00-.85 18.42l.36.79c.14.36.2.79.2 1.3a3.68 3.68 0 01-3.66 3.73 3.68 3.68 0 01-3.67-3.74c0-.36.07-.64.14-.93.21-.43.43-.86.64-1.37A20.24 20.24 0 001.4 18.7c-.28-.57-.63-1.08-.99-1.58A4.35 4.35 0 010 15.18z" fill="#E3A127"/>
  <path d="M16.93 24.24a36.63 36.63 0 01-3.74 4.46 35.07 35.07 0 01-9.1 6.69c-.35.14-.63.36-.99.5-.2.14-.35.29-.56.43a3.88 3.88 0 000 5.32 3.7 3.7 0 005.22 0c.14-.14.28-.36.42-.5.14-.36.36-.72.5-1.08A34.56 34.56 0 0119.6 27.04c1.9.87 4.16.5 5.72-1.08a5.44 5.44 0 000-7.4 5 5 0 00-4.45-1.44 4.88 4.88 0 00-2.82 1.44 4.91 4.91 0 00-1.13 5.68zM4.03 41.36c.06-.08.2-.08.27-.15-.07.07-.14.15-.28.15z" fill="#E3A127"/>
</svg>
