<svg fill="none" xmlns="http://www.w3.org/2000/svg" viewBox="0 0 33 33">
  <defs/>
  <path d="M16.3 8.4a8 8 0 100 16.2 8 8 0 000-16.2zm0 13.4a5.3 5.3 0 01-5.2-5.3 5.2 5.2 0 1110.5 0c0 3-2.4 5.3-5.3 5.3zM26.6 8c0-1-.8-1.9-1.9-1.9-1 0-1.9.9-1.9 2 0 1 .9 1.8 2 1.8 1 0 1.8-.8 1.8-1.9zm5.4 2c-.2-2.6-.8-4.8-2.6-6.7-1.8-1.8-4-2.4-6.6-2.5-2.6-.2-10.4-.2-13 0-2.5.1-4.7.7-6.6 2.5C1.4 5.3.8 7.5.7 10 .5 12.6.5 20.4.7 23c.1 2.6.7 4.8 2.5 6.6 1.9 1.9 4 2.4 6.6 2.6h13c2.5-.2 4.8-.7 6.6-2.6 1.9-1.9 2.4-4 2.6-6.6V10zm-3.4 15.7a5.2 5.2 0 01-3 3c-2 .8-7 .6-9.3.6-2.3 0-7.2.2-9.2-.6a5.3 5.3 0 01-3-3c-.9-2-.7-7-.7-9.3 0-2.3-.2-7.2.6-9.3a5.4 5.4 0 013-3c2.1-.8 7-.6 9.3-.6 2.3 0 7.2-.2 9.3.7 1.4.5 2.4 1.6 3 3 .8 2 .6 7 .6 9.2 0 2.3.2 7.2-.6 9.3z" fill="#fff"/>
</svg>
