<svg fill="none" xmlns="http://www.w3.org/2000/svg" viewBox="0 0 140 22">
  <defs/>
  <path d="M3.24 3.63V8.6h7.94v2.58H3.24v6.27H.2V1.08h12v2.55H3.24zM17.43 6.79c.84-1.31 2.33-1.97 4.46-1.97v2.79a3.74 3.74 0 00-.68-.07c-1.15 0-2.04.33-2.68 1-.64.66-.96 1.6-.96 2.86v6.06h-2.94V4.96h2.8V6.8zM36.64 4.96v12.5h-2.8v-1.6c-.47.57-1.05 1-1.76 1.32-.7.3-1.46.44-2.28.44-1.67 0-3-.46-3.97-1.38-.95-.93-1.43-2.31-1.43-4.14V4.96h2.94v6.74c0 1.13.25 1.97.75 2.53.51.55 1.24.82 2.18.82 1.05 0 1.88-.32 2.5-.96.62-.66.93-1.6.93-2.81V4.96h2.94zM45.6 12.1l-2.18 2.06v3.3h-2.94V.09h2.94v10.49l6.08-5.62h3.52L47.8 10.2l5.73 7.26h-3.57L45.6 12.1zM62.95 16.78c-.34.28-.76.5-1.26.63-.49.14-1 .21-1.55.21a4.44 4.44 0 01-3.2-1.07c-.75-.72-1.13-1.77-1.13-3.14V7.39h-2.06V5.05h2.06V2.2h2.94v2.85h3.36V7.4h-3.36v5.95c0 .6.15 1.08.45 1.4.3.32.72.47 1.29.47.66 0 1.2-.17 1.64-.51l.82 2.08zM65.8 17.55c-.27 0-.5-.1-.71-.28-.2-.2-.28-.44-.28-.72 0-.28.09-.52.28-.7.2-.2.44-.29.7-.29.27 0 .5.1.68.28a.99.99 0 010 1.43.93.93 0 01-.68.28zM82.3 9.34h1.15v6.13c-.72.69-1.6 1.2-2.63 1.57-1.02.36-2.1.54-3.25.54-1.62 0-3.1-.36-4.41-1.08a8.03 8.03 0 01-4.18-7.23 8.03 8.03 0 014.18-7.23A9.11 9.11 0 0177.6.95c1.2 0 2.3.2 3.31.58 1.02.38 1.89.93 2.6 1.67l-.74.8a6.07 6.07 0 00-2.33-1.48 8.09 8.09 0 00-2.82-.47c-1.4 0-2.68.31-3.83.93a7.12 7.12 0 00-3.62 6.27c0 1.35.33 2.57.97 3.68a7.24 7.24 0 006.48 3.54 7.2 7.2 0 004.68-1.5V9.34zM89.47 7.91c.38-.89.96-1.57 1.76-2.04.8-.48 1.77-.72 2.91-.72v1.14l-.28-.02c-1.36 0-2.42.43-3.2 1.29a5.06 5.06 0 00-1.14 3.53v6.37h-1.18V5.24h1.13v2.67zM102.06 17.55c-1.16 0-2.21-.26-3.15-.8a5.79 5.79 0 01-2.18-2.2 6.46 6.46 0 01-.8-3.2c0-1.19.26-2.25.8-3.18a5.74 5.74 0 012.18-2.23c.94-.53 1.99-.8 3.15-.8s2.2.27 3.12.8a5.7 5.7 0 012.2 2.23c.54.93.8 2 .8 3.18 0 1.19-.26 2.26-.8 3.2a5.75 5.75 0 01-2.2 2.2c-.92.54-1.96.8-3.12.8zm0-1.05c.94 0 1.77-.22 2.51-.66a4.6 4.6 0 001.76-1.82c.44-.78.66-1.67.66-2.67s-.22-1.89-.66-2.67a4.6 4.6 0 00-1.76-1.82 4.83 4.83 0 00-2.51-.66 4.83 4.83 0 00-4.3 2.48 5.51 5.51 0 00-.64 2.67c0 1 .22 1.89.64 2.67a4.83 4.83 0 001.76 1.82c.75.44 1.6.66 2.54.66zM122.56 5.24v12.22h-1.12v-2.62a4.61 4.61 0 01-1.81 2.01c-.8.47-1.74.7-2.82.7-1.6 0-2.85-.44-3.76-1.33-.9-.9-1.36-2.17-1.36-3.84V5.24h1.17v7.05c0 1.37.36 2.42 1.06 3.13a4 4 0 002.98 1.08c1.38 0 2.47-.43 3.27-1.29a4.83 4.83 0 001.22-3.46v-6.5h1.17zM133.7 5.15c1.14 0 2.17.26 3.1.8a5.62 5.62 0 012.16 2.2c.53.93.8 2 .8 3.2a6.5 6.5 0 01-.8 3.23 5.62 5.62 0 01-2.16 2.2c-.93.52-1.96.77-3.1.77a5.83 5.83 0 01-2.94-.75 5.36 5.36 0 01-2.04-2.13V22h-1.18V5.24h1.13v2.88a5.29 5.29 0 012.04-2.18c.9-.53 1.9-.8 2.99-.8zm-.07 11.35c.94 0 1.78-.22 2.53-.66a4.6 4.6 0 001.77-1.82c.43-.78.65-1.67.65-2.67s-.22-1.89-.66-2.67a4.6 4.6 0 00-1.76-1.82 4.96 4.96 0 00-2.53-.66 4.82 4.82 0 00-4.3 2.48 5.5 5.5 0 00-.64 2.67c0 1 .22 1.89.64 2.67a4.82 4.82 0 001.76 1.82c.75.44 1.6.66 2.54.66z" fill="#F2F2F2"/>
</svg>
