<svg fill="none" xmlns="http://www.w3.org/2000/svg" viewBox="0 0 23 23">
  <defs/>
  <path d="M7.53 5.338c-1.434 0-2.617-1.206-2.617-2.669C4.913 1.207 6.096 0 7.531 0c.394 0 .789.073 1.112.256.179.11.358.256.537.366a9.783 9.783 0 005.021 1.389c1.506 0 2.905-.33 4.16-.95.143-.074.251-.11.394-.183.18-.074.395-.11.646-.11 1.04 0 1.865.84 1.865 1.901 0 1.06-.825 1.901-1.865 1.901-.18 0-.323-.036-.466-.073-.215-.11-.43-.22-.682-.329a9.791 9.791 0 00-4.016-.877 9.792 9.792 0 00-4.913 1.316c-.287.146-.538.329-.789.512-.323.146-.646.22-1.004.22z" fill="#fff"/>
  <path d="M22.019 14.772c0 1.462-1.184 2.669-2.618 2.669s-2.618-1.207-2.618-2.67c0-.402.072-.804.251-1.133.108-.183.251-.365.359-.548.86-1.5 1.362-3.254 1.362-5.12 0-1.535-.322-2.96-.932-4.24-.072-.147-.108-.256-.18-.403a1.803 1.803 0 01-.107-.658c0-1.06.825-1.901 1.865-1.901s1.865.84 1.865 1.901c0 .183-.036.33-.072.475-.108.22-.215.44-.323.695a10.315 10.315 0 00-.86 4.095c0 1.828.466 3.51 1.29 5.01.144.292.323.548.503.804.143.329.215.658.215 1.024z" fill="#fff"/>
  <path d="M13.412 10.165a18.624 18.624 0 011.9-2.267 17.832 17.832 0 014.627-3.4c.18-.074.323-.184.502-.257.108-.073.18-.146.287-.219.717-.731.717-1.938 0-2.706-.717-.731-1.9-.731-2.654 0-.072.073-.143.183-.215.256-.072.183-.18.366-.251.549a17.569 17.569 0 01-3.335 4.716 15.788 15.788 0 01-2.224 1.902 2.556 2.556 0 00-2.904.548 2.564 2.564 0 00-.718 1.463c-.107.804.108 1.681.718 2.303.61.622 1.47.878 2.259.731a2.48 2.48 0 001.434-.73c.79-.732.969-1.902.574-2.89zM14.452 17.185c1.434 0 2.618 1.206 2.618 2.669s-1.184 2.67-2.618 2.67c-.394 0-.789-.074-1.112-.257-.179-.11-.358-.256-.537-.366a9.783 9.783 0 00-5.021-1.389c-1.506 0-2.905.33-4.16.95-.143.074-.251.11-.394.184-.18.073-.395.11-.646.11-1.04 0-1.865-.842-1.865-1.902s.825-1.901 1.865-1.901c.18 0 .323.036.466.073.215.11.43.22.682.329a9.79 9.79 0 004.016.877 9.793 9.793 0 004.913-1.316c.287-.146.538-.329.789-.512.323-.183.681-.22 1.004-.22z" fill="#fff"/>
  <path d="M0 7.715c0-1.463 1.183-2.67 2.618-2.67 1.434 0 2.618 1.207 2.618 2.67 0 .402-.072.804-.251 1.133-.108.183-.251.366-.359.549a10.273 10.273 0 00-1.363 5.119c0 1.535.323 2.961.933 4.241.071.146.107.256.18.402.07.183.107.402.107.658 0 1.06-.825 1.902-1.865 1.902S.753 20.878.753 19.817c0-.183.036-.329.072-.475.107-.22.215-.439.323-.695.537-1.28.86-2.669.86-4.131 0-1.829-.466-3.51-1.29-5.01-.144-.292-.324-.548-.503-.804A2.212 2.212 0 010 7.715z" fill="#fff"/>
  <path d="M8.607 12.322a18.613 18.613 0 01-1.9 2.267 17.83 17.83 0 01-4.627 3.4c-.18.073-.323.183-.502.256-.108.073-.18.146-.287.22-.717.73-.717 1.937 0 2.705.717.731 1.9.731 2.654 0 .071-.073.143-.183.215-.256.072-.183.18-.365.251-.548a17.57 17.57 0 013.335-4.717 15.786 15.786 0 012.223-1.901 2.556 2.556 0 002.905-.549c.395-.402.646-.914.717-1.462.108-.805-.107-1.682-.717-2.304a2.539 2.539 0 00-2.259-.731c-.538.073-1.04.33-1.434.731-.825.732-1.005 1.902-.574 2.889zm-6.563 8.702c.036-.037.108-.037.144-.073-.036.036-.072.073-.144.073z" fill="#fff"/>
</svg>
